<svg width="11" height="14" viewBox="0 0 11 14" fill="none" xmlns="http://www.w3.org/2000/svg">
<g clip-path="url(#clip0_2202_302)">
<path d="M6.14707 0.875C2.75037 0.875 0 3.61758 0 7C0 10.3824 2.75037 13.125 6.14707 13.125C7.81379 13.125 9.32374 12.4633 10.4321 11.3914C10.5697 11.2574 10.6054 11.0496 10.5174 10.8801C10.4294 10.7105 10.2396 10.6148 10.0498 10.6477C9.7803 10.6941 9.50526 10.7188 9.22198 10.7188C6.55687 10.7188 4.39508 8.56406 4.39508 5.90625C4.39508 4.10703 5.38522 2.54023 6.85116 1.71445C7.01893 1.61875 7.10419 1.42734 7.06294 1.24141C7.02168 1.05547 6.86216 0.916016 6.66964 0.899609C6.49636 0.885938 6.32309 0.877734 6.14707 0.877734V0.875Z" fill="black"/>
</g>
<defs>
<clipPath id="clip0_2202_302">
<rect width="10.5614" height="14" fill="white"/>
</clipPath>
</defs>
</svg>
