<svg width="214" height="59" viewBox="0 0 214 59" fill="none" xmlns="http://www.w3.org/2000/svg">
<mask id="path-1-outside-1_4202_186" maskUnits="userSpaceOnUse" x="49" y="15" width="166" height="27" fill="black">
<rect fill="white" x="49" y="15" width="166" height="27"/>
<path d="M65.3636 25.2344C65.2145 24.7159 65.005 24.2578 64.7351 23.8601C64.4652 23.4553 64.1349 23.1143 63.7443 22.8374C63.3608 22.5533 62.9205 22.3366 62.4233 22.1875C61.9332 22.0384 61.3899 21.9638 60.7933 21.9638C59.6783 21.9638 58.6982 22.2408 57.853 22.7947C57.0149 23.3487 56.3615 24.1548 55.8928 25.2131C55.424 26.2642 55.1896 27.5497 55.1896 29.0696C55.1896 30.5895 55.4205 31.8821 55.8821 32.9474C56.3438 34.0128 56.9972 34.826 57.8423 35.3871C58.6875 35.9411 59.6854 36.218 60.8359 36.218C61.88 36.218 62.7713 36.0334 63.5099 35.6641C64.2557 35.2876 64.8239 34.7585 65.2145 34.0767C65.6122 33.3949 65.8111 32.5888 65.8111 31.6584L66.7486 31.7969H61.1236V28.3239H70.2536V31.0724C70.2536 32.9901 69.8487 34.6378 69.0391 36.0156C68.2294 37.3864 67.1143 38.4446 65.6939 39.1903C64.2734 39.929 62.647 40.2983 60.8146 40.2983C58.7692 40.2983 56.9723 39.8473 55.424 38.9453C53.8757 38.0362 52.6683 36.7472 51.8018 35.0781C50.9425 33.402 50.5128 31.4134 50.5128 29.1122C50.5128 27.3437 50.7685 25.767 51.2798 24.3821C51.7983 22.9901 52.5227 21.8111 53.4531 20.8452C54.3835 19.8793 55.4666 19.1442 56.7024 18.6399C57.9382 18.1357 59.277 17.8835 60.7188 17.8835C61.9545 17.8835 63.1051 18.0646 64.1705 18.4268C65.2358 18.782 66.1804 19.2862 67.0043 19.9396C67.8352 20.593 68.5135 21.3707 69.0391 22.2727C69.5646 23.1676 69.902 24.1548 70.0511 25.2344H65.3636ZM73.6333 40V23.6364H78.0332V26.4915H78.2037C78.502 25.4759 79.0027 24.7088 79.7058 24.1903C80.4089 23.6648 81.2186 23.402 82.1348 23.402C82.362 23.402 82.6071 23.4162 82.8699 23.4446C83.1326 23.473 83.3635 23.5121 83.5623 23.5618V27.5888C83.3493 27.5249 83.0545 27.468 82.6781 27.4183C82.3017 27.3686 81.9572 27.3438 81.6447 27.3438C80.9771 27.3438 80.3805 27.4893 79.8549 27.7805C79.3365 28.0646 78.9245 28.4624 78.6191 28.9737C78.3208 29.4851 78.1717 30.0746 78.1717 30.7422V40H73.6333ZM92.6044 40.3196C90.9212 40.3196 89.4723 39.9787 88.2578 39.2969C87.0504 38.608 86.12 37.6349 85.4666 36.3778C84.8132 35.1136 84.4865 33.6186 84.4865 31.8928C84.4865 30.2095 84.8132 28.7322 85.4666 27.4609C86.12 26.1896 87.0398 25.1989 88.2259 24.4886C89.419 23.7784 90.8182 23.4233 92.4233 23.4233C93.5028 23.4233 94.5078 23.5973 95.4382 23.9453C96.3757 24.2862 97.1925 24.8011 97.8885 25.4901C98.5916 26.179 99.1385 27.0455 99.5291 28.0895C99.9197 29.1264 100.115 30.3409 100.115 31.733V32.9794H86.2976V30.1669H95.843C95.843 29.5135 95.701 28.9347 95.4169 28.4304C95.1328 27.9261 94.7386 27.532 94.2344 27.2479C93.7372 26.9567 93.1584 26.8111 92.4979 26.8111C91.8089 26.8111 91.1982 26.9709 90.6655 27.2905C90.1399 27.603 89.728 28.0256 89.4297 28.5582C89.1314 29.0838 88.9787 29.6697 88.9716 30.3161V32.9901C88.9716 33.7997 89.1207 34.4993 89.419 35.0888C89.7244 35.6783 90.1541 36.1328 90.7081 36.4524C91.2621 36.772 91.919 36.9318 92.679 36.9318C93.1832 36.9318 93.6449 36.8608 94.0639 36.7188C94.483 36.5767 94.8416 36.3636 95.1399 36.0795C95.4382 35.7955 95.6655 35.4474 95.8217 35.0355L100.019 35.3125C99.8061 36.321 99.3693 37.2017 98.7088 37.9545C98.0554 38.7003 97.2102 39.2827 96.1733 39.7017C95.1435 40.1136 93.9538 40.3196 92.6044 40.3196ZM110.534 40.3196C108.851 40.3196 107.402 39.9787 106.188 39.2969C104.98 38.608 104.05 37.6349 103.396 36.3778C102.743 35.1136 102.416 33.6186 102.416 31.8928C102.416 30.2095 102.743 28.7322 103.396 27.4609C104.05 26.1896 104.969 25.1989 106.156 24.4886C107.349 23.7784 108.748 23.4233 110.353 23.4233C111.433 23.4233 112.438 23.5973 113.368 23.9453C114.305 24.2862 115.122 24.8011 115.818 25.4901C116.521 26.179 117.068 27.0455 117.459 28.0895C117.849 29.1264 118.045 30.3409 118.045 31.733V32.9794H104.227V30.1669H113.773C113.773 29.5135 113.631 28.9347 113.347 28.4304C113.063 27.9261 112.668 27.532 112.164 27.2479C111.667 26.9567 111.088 26.8111 110.428 26.8111C109.739 26.8111 109.128 26.9709 108.595 27.2905C108.07 27.603 107.658 28.0256 107.359 28.5582C107.061 29.0838 106.908 29.6697 106.901 30.3161V32.9901C106.901 33.7997 107.05 34.4993 107.349 35.0888C107.654 35.6783 108.084 36.1328 108.638 36.4524C109.192 36.772 109.849 36.9318 110.609 36.9318C111.113 36.9318 111.575 36.8608 111.994 36.7188C112.413 36.5767 112.771 36.3636 113.07 36.0795C113.368 35.7955 113.595 35.4474 113.751 35.0355L117.949 35.3125C117.736 36.321 117.299 37.2017 116.638 37.9545C115.985 38.7003 115.14 39.2827 114.103 39.7017C113.073 40.1136 111.884 40.3196 110.534 40.3196ZM125.545 30.5398V40H121.006V23.6364H125.332V26.5234H125.523C125.886 25.5717 126.493 24.8189 127.345 24.2649C128.197 23.7038 129.231 23.4233 130.445 23.4233C131.582 23.4233 132.572 23.6719 133.418 24.169C134.263 24.6662 134.92 25.3764 135.388 26.2997C135.857 27.2159 136.092 28.3097 136.092 29.581V40H131.553V30.3906C131.56 29.3892 131.305 28.608 130.786 28.0469C130.268 27.4787 129.554 27.1946 128.645 27.1946C128.034 27.1946 127.494 27.326 127.026 27.5888C126.564 27.8516 126.202 28.2351 125.939 28.7393C125.683 29.2365 125.552 29.8366 125.545 30.5398Z"/>
<path d="M139.754 40V18.1818H148.362C150.017 18.1818 151.426 18.4979 152.591 19.13C153.756 19.755 154.644 20.625 155.254 21.7401C155.872 22.848 156.181 24.1264 156.181 25.5753C156.181 27.0241 155.869 28.3026 155.244 29.4105C154.619 30.5185 153.713 31.3814 152.527 31.9993C151.348 32.6172 149.921 32.9261 148.244 32.9261H142.758V29.2294H147.499C148.387 29.2294 149.118 29.0767 149.693 28.7713C150.276 28.4588 150.709 28.0291 150.993 27.4822C151.284 26.9283 151.43 26.2926 151.43 25.5753C151.43 24.8509 151.284 24.2187 150.993 23.679C150.709 23.1321 150.276 22.7095 149.693 22.4112C149.111 22.1058 148.372 21.9531 147.477 21.9531H144.367V40H139.754ZM166.222 40.3196C164.567 40.3196 163.136 39.968 161.929 39.2649C160.729 38.5547 159.802 37.5675 159.148 36.3033C158.495 35.032 158.168 33.5582 158.168 31.8821C158.168 30.1918 158.495 28.7145 159.148 27.4503C159.802 26.179 160.729 25.1918 161.929 24.4886C163.136 23.7784 164.567 23.4233 166.222 23.4233C167.877 23.4233 169.305 23.7784 170.505 24.4886C171.712 25.1918 172.643 26.179 173.296 27.4503C173.949 28.7145 174.276 30.1918 174.276 31.8821C174.276 33.5582 173.949 35.032 173.296 36.3033C172.643 37.5675 171.712 38.5547 170.505 39.2649C169.305 39.968 167.877 40.3196 166.222 40.3196ZM166.243 36.804C166.996 36.804 167.625 36.5909 168.129 36.1648C168.633 35.7315 169.013 35.142 169.269 34.3963C169.532 33.6506 169.663 32.8018 169.663 31.8501C169.663 30.8984 169.532 30.0497 169.269 29.304C169.013 28.5582 168.633 27.9687 168.129 27.5355C167.625 27.1023 166.996 26.8857 166.243 26.8857C165.483 26.8857 164.844 27.1023 164.326 27.5355C163.814 27.9687 163.427 28.5582 163.165 29.304C162.909 30.0497 162.781 30.8984 162.781 31.8501C162.781 32.8018 162.909 33.6506 163.165 34.3963C163.427 35.142 163.814 35.7315 164.326 36.1648C164.844 36.5909 165.483 36.804 166.243 36.804ZM177.227 40V23.6364H181.765V40H177.227ZM179.507 21.527C178.832 21.527 178.253 21.3033 177.77 20.8558C177.295 20.4013 177.057 19.858 177.057 19.2259C177.057 18.6009 177.295 18.0646 177.77 17.6172C178.253 17.1626 178.832 16.9354 179.507 16.9354C180.182 16.9354 180.757 17.1626 181.233 17.6172C181.716 18.0646 181.957 18.6009 181.957 19.2259C181.957 19.858 181.716 20.4013 181.233 20.8558C180.757 21.3033 180.182 21.527 179.507 21.527ZM189.939 30.5398V40H185.401V23.6364H189.726V26.5234H189.918C190.28 25.5717 190.887 24.8189 191.74 24.2649C192.592 23.7038 193.625 23.4233 194.84 23.4233C195.976 23.4233 196.967 23.6719 197.812 24.169C198.657 24.6662 199.314 25.3764 199.783 26.2997C200.252 27.2159 200.486 28.3097 200.486 29.581V40H195.948V30.3906C195.955 29.3892 195.699 28.608 195.181 28.0469C194.662 27.4787 193.949 27.1946 193.039 27.1946C192.429 27.1946 191.889 27.326 191.42 27.5888C190.958 27.8516 190.596 28.2351 190.333 28.7393C190.078 29.2365 189.946 29.8366 189.939 30.5398ZM212.767 23.6364V27.0455H202.912V23.6364H212.767ZM205.15 19.7159H209.688V34.9716C209.688 35.3906 209.752 35.7173 209.88 35.9517C210.008 36.179 210.185 36.3388 210.412 36.4311C210.647 36.5234 210.917 36.5696 211.222 36.5696C211.435 36.5696 211.648 36.5518 211.861 36.5163C212.074 36.4737 212.238 36.4418 212.351 36.4205L213.065 39.7976C212.838 39.8686 212.518 39.9503 212.106 40.0426C211.694 40.142 211.194 40.2024 210.604 40.2237C209.51 40.2663 208.552 40.1207 207.728 39.7869C206.911 39.4531 206.275 38.9347 205.821 38.2315C205.366 37.5284 205.143 36.6406 205.15 35.5682V19.7159Z"/>
</mask>
<path d="M65.3636 25.2344C65.2145 24.7159 65.005 24.2578 64.7351 23.8601C64.4652 23.4553 64.1349 23.1143 63.7443 22.8374C63.3608 22.5533 62.9205 22.3366 62.4233 22.1875C61.9332 22.0384 61.3899 21.9638 60.7933 21.9638C59.6783 21.9638 58.6982 22.2408 57.853 22.7947C57.0149 23.3487 56.3615 24.1548 55.8928 25.2131C55.424 26.2642 55.1896 27.5497 55.1896 29.0696C55.1896 30.5895 55.4205 31.8821 55.8821 32.9474C56.3438 34.0128 56.9972 34.826 57.8423 35.3871C58.6875 35.9411 59.6854 36.218 60.8359 36.218C61.88 36.218 62.7713 36.0334 63.5099 35.6641C64.2557 35.2876 64.8239 34.7585 65.2145 34.0767C65.6122 33.3949 65.8111 32.5888 65.8111 31.6584L66.7486 31.7969H61.1236V28.3239H70.2536V31.0724C70.2536 32.9901 69.8487 34.6378 69.0391 36.0156C68.2294 37.3864 67.1143 38.4446 65.6939 39.1903C64.2734 39.929 62.647 40.2983 60.8146 40.2983C58.7692 40.2983 56.9723 39.8473 55.424 38.9453C53.8757 38.0362 52.6683 36.7472 51.8018 35.0781C50.9425 33.402 50.5128 31.4134 50.5128 29.1122C50.5128 27.3437 50.7685 25.767 51.2798 24.3821C51.7983 22.9901 52.5227 21.8111 53.4531 20.8452C54.3835 19.8793 55.4666 19.1442 56.7024 18.6399C57.9382 18.1357 59.277 17.8835 60.7188 17.8835C61.9545 17.8835 63.1051 18.0646 64.1705 18.4268C65.2358 18.782 66.1804 19.2862 67.0043 19.9396C67.8352 20.593 68.5135 21.3707 69.0391 22.2727C69.5646 23.1676 69.902 24.1548 70.0511 25.2344H65.3636ZM73.6333 40V23.6364H78.0332V26.4915H78.2037C78.502 25.4759 79.0027 24.7088 79.7058 24.1903C80.4089 23.6648 81.2186 23.402 82.1348 23.402C82.362 23.402 82.6071 23.4162 82.8699 23.4446C83.1326 23.473 83.3635 23.5121 83.5623 23.5618V27.5888C83.3493 27.5249 83.0545 27.468 82.6781 27.4183C82.3017 27.3686 81.9572 27.3438 81.6447 27.3438C80.9771 27.3438 80.3805 27.4893 79.8549 27.7805C79.3365 28.0646 78.9245 28.4624 78.6191 28.9737C78.3208 29.4851 78.1717 30.0746 78.1717 30.7422V40H73.6333ZM92.6044 40.3196C90.9212 40.3196 89.4723 39.9787 88.2578 39.2969C87.0504 38.608 86.12 37.6349 85.4666 36.3778C84.8132 35.1136 84.4865 33.6186 84.4865 31.8928C84.4865 30.2095 84.8132 28.7322 85.4666 27.4609C86.12 26.1896 87.0398 25.1989 88.2259 24.4886C89.419 23.7784 90.8182 23.4233 92.4233 23.4233C93.5028 23.4233 94.5078 23.5973 95.4382 23.9453C96.3757 24.2862 97.1925 24.8011 97.8885 25.4901C98.5916 26.179 99.1385 27.0455 99.5291 28.0895C99.9197 29.1264 100.115 30.3409 100.115 31.733V32.9794H86.2976V30.1669H95.843C95.843 29.5135 95.701 28.9347 95.4169 28.4304C95.1328 27.9261 94.7386 27.532 94.2344 27.2479C93.7372 26.9567 93.1584 26.8111 92.4979 26.8111C91.8089 26.8111 91.1982 26.9709 90.6655 27.2905C90.1399 27.603 89.728 28.0256 89.4297 28.5582C89.1314 29.0838 88.9787 29.6697 88.9716 30.3161V32.9901C88.9716 33.7997 89.1207 34.4993 89.419 35.0888C89.7244 35.6783 90.1541 36.1328 90.7081 36.4524C91.2621 36.772 91.919 36.9318 92.679 36.9318C93.1832 36.9318 93.6449 36.8608 94.0639 36.7188C94.483 36.5767 94.8416 36.3636 95.1399 36.0795C95.4382 35.7955 95.6655 35.4474 95.8217 35.0355L100.019 35.3125C99.8061 36.321 99.3693 37.2017 98.7088 37.9545C98.0554 38.7003 97.2102 39.2827 96.1733 39.7017C95.1435 40.1136 93.9538 40.3196 92.6044 40.3196ZM110.534 40.3196C108.851 40.3196 107.402 39.9787 106.188 39.2969C104.98 38.608 104.05 37.6349 103.396 36.3778C102.743 35.1136 102.416 33.6186 102.416 31.8928C102.416 30.2095 102.743 28.7322 103.396 27.4609C104.05 26.1896 104.969 25.1989 106.156 24.4886C107.349 23.7784 108.748 23.4233 110.353 23.4233C111.433 23.4233 112.438 23.5973 113.368 23.9453C114.305 24.2862 115.122 24.8011 115.818 25.4901C116.521 26.179 117.068 27.0455 117.459 28.0895C117.849 29.1264 118.045 30.3409 118.045 31.733V32.9794H104.227V30.1669H113.773C113.773 29.5135 113.631 28.9347 113.347 28.4304C113.063 27.9261 112.668 27.532 112.164 27.2479C111.667 26.9567 111.088 26.8111 110.428 26.8111C109.739 26.8111 109.128 26.9709 108.595 27.2905C108.07 27.603 107.658 28.0256 107.359 28.5582C107.061 29.0838 106.908 29.6697 106.901 30.3161V32.9901C106.901 33.7997 107.05 34.4993 107.349 35.0888C107.654 35.6783 108.084 36.1328 108.638 36.4524C109.192 36.772 109.849 36.9318 110.609 36.9318C111.113 36.9318 111.575 36.8608 111.994 36.7188C112.413 36.5767 112.771 36.3636 113.07 36.0795C113.368 35.7955 113.595 35.4474 113.751 35.0355L117.949 35.3125C117.736 36.321 117.299 37.2017 116.638 37.9545C115.985 38.7003 115.14 39.2827 114.103 39.7017C113.073 40.1136 111.884 40.3196 110.534 40.3196ZM125.545 30.5398V40H121.006V23.6364H125.332V26.5234H125.523C125.886 25.5717 126.493 24.8189 127.345 24.2649C128.197 23.7038 129.231 23.4233 130.445 23.4233C131.582 23.4233 132.572 23.6719 133.418 24.169C134.263 24.6662 134.92 25.3764 135.388 26.2997C135.857 27.2159 136.092 28.3097 136.092 29.581V40H131.553V30.3906C131.56 29.3892 131.305 28.608 130.786 28.0469C130.268 27.4787 129.554 27.1946 128.645 27.1946C128.034 27.1946 127.494 27.326 127.026 27.5888C126.564 27.8516 126.202 28.2351 125.939 28.7393C125.683 29.2365 125.552 29.8366 125.545 30.5398Z" fill="#006C34"/>
<path d="M139.754 40V18.1818H148.362C150.017 18.1818 151.426 18.4979 152.591 19.13C153.756 19.755 154.644 20.625 155.254 21.7401C155.872 22.848 156.181 24.1264 156.181 25.5753C156.181 27.0241 155.869 28.3026 155.244 29.4105C154.619 30.5185 153.713 31.3814 152.527 31.9993C151.348 32.6172 149.921 32.9261 148.244 32.9261H142.758V29.2294H147.499C148.387 29.2294 149.118 29.0767 149.693 28.7713C150.276 28.4588 150.709 28.0291 150.993 27.4822C151.284 26.9283 151.43 26.2926 151.43 25.5753C151.43 24.8509 151.284 24.2187 150.993 23.679C150.709 23.1321 150.276 22.7095 149.693 22.4112C149.111 22.1058 148.372 21.9531 147.477 21.9531H144.367V40H139.754ZM166.222 40.3196C164.567 40.3196 163.136 39.968 161.929 39.2649C160.729 38.5547 159.802 37.5675 159.148 36.3033C158.495 35.032 158.168 33.5582 158.168 31.8821C158.168 30.1918 158.495 28.7145 159.148 27.4503C159.802 26.179 160.729 25.1918 161.929 24.4886C163.136 23.7784 164.567 23.4233 166.222 23.4233C167.877 23.4233 169.305 23.7784 170.505 24.4886C171.712 25.1918 172.643 26.179 173.296 27.4503C173.949 28.7145 174.276 30.1918 174.276 31.8821C174.276 33.5582 173.949 35.032 173.296 36.3033C172.643 37.5675 171.712 38.5547 170.505 39.2649C169.305 39.968 167.877 40.3196 166.222 40.3196ZM166.243 36.804C166.996 36.804 167.625 36.5909 168.129 36.1648C168.633 35.7315 169.013 35.142 169.269 34.3963C169.532 33.6506 169.663 32.8018 169.663 31.8501C169.663 30.8984 169.532 30.0497 169.269 29.304C169.013 28.5582 168.633 27.9687 168.129 27.5355C167.625 27.1023 166.996 26.8857 166.243 26.8857C165.483 26.8857 164.844 27.1023 164.326 27.5355C163.814 27.9687 163.427 28.5582 163.165 29.304C162.909 30.0497 162.781 30.8984 162.781 31.8501C162.781 32.8018 162.909 33.6506 163.165 34.3963C163.427 35.142 163.814 35.7315 164.326 36.1648C164.844 36.5909 165.483 36.804 166.243 36.804ZM177.227 40V23.6364H181.765V40H177.227ZM179.507 21.527C178.832 21.527 178.253 21.3033 177.77 20.8558C177.295 20.4013 177.057 19.858 177.057 19.2259C177.057 18.6009 177.295 18.0646 177.77 17.6172C178.253 17.1626 178.832 16.9354 179.507 16.9354C180.182 16.9354 180.757 17.1626 181.233 17.6172C181.716 18.0646 181.957 18.6009 181.957 19.2259C181.957 19.858 181.716 20.4013 181.233 20.8558C180.757 21.3033 180.182 21.527 179.507 21.527ZM189.939 30.5398V40H185.401V23.6364H189.726V26.5234H189.918C190.28 25.5717 190.887 24.8189 191.74 24.2649C192.592 23.7038 193.625 23.4233 194.84 23.4233C195.976 23.4233 196.967 23.6719 197.812 24.169C198.657 24.6662 199.314 25.3764 199.783 26.2997C200.252 27.2159 200.486 28.3097 200.486 29.581V40H195.948V30.3906C195.955 29.3892 195.699 28.608 195.181 28.0469C194.662 27.4787 193.949 27.1946 193.039 27.1946C192.429 27.1946 191.889 27.326 191.42 27.5888C190.958 27.8516 190.596 28.2351 190.333 28.7393C190.078 29.2365 189.946 29.8366 189.939 30.5398ZM212.767 23.6364V27.0455H202.912V23.6364H212.767ZM205.15 19.7159H209.688V34.9716C209.688 35.3906 209.752 35.7173 209.88 35.9517C210.008 36.179 210.185 36.3388 210.412 36.4311C210.647 36.5234 210.917 36.5696 211.222 36.5696C211.435 36.5696 211.648 36.5518 211.861 36.5163C212.074 36.4737 212.238 36.4418 212.351 36.4205L213.065 39.7976C212.838 39.8686 212.518 39.9503 212.106 40.0426C211.694 40.142 211.194 40.2024 210.604 40.2237C209.51 40.2663 208.552 40.1207 207.728 39.7869C206.911 39.4531 206.275 38.9347 205.821 38.2315C205.366 37.5284 205.143 36.6406 205.15 35.5682V19.7159Z" fill="#FFC107"/>
<path d="M65.3636 25.2344L64.4026 25.5108L64.6108 26.2344H65.3636V25.2344ZM64.7351 23.8601L63.903 24.4148L63.9076 24.4216L64.7351 23.8601ZM63.7443 22.8374L63.1491 23.6409L63.1574 23.6471L63.1659 23.6531L63.7443 22.8374ZM62.4233 22.1875L62.1321 23.1442L62.1359 23.1453L62.4233 22.1875ZM57.853 22.7947L57.3048 21.9584L57.3015 21.9605L57.853 22.7947ZM55.8928 25.2131L56.8061 25.6204L56.8071 25.6181L55.8928 25.2131ZM57.8423 35.3871L57.2892 36.2202L57.2941 36.2234L57.8423 35.3871ZM63.5099 35.6641L63.9572 36.5585L63.9606 36.5568L63.5099 35.6641ZM65.2145 34.0767L64.3507 33.5728L64.3468 33.5796L65.2145 34.0767ZM65.8111 31.6584L65.9572 30.6691L64.8111 30.4998V31.6584H65.8111ZM66.7486 31.7969V32.7969L66.8947 30.8076L66.7486 31.7969ZM61.1236 31.7969H60.1236V32.7969H61.1236V31.7969ZM61.1236 28.3239V27.3239H60.1236V28.3239H61.1236ZM70.2536 28.3239H71.2536V27.3239H70.2536V28.3239ZM69.0391 36.0156L69.9001 36.5242L69.9012 36.5223L69.0391 36.0156ZM65.6939 39.1903L66.1552 40.0776L66.1587 40.0757L65.6939 39.1903ZM55.424 38.9453L54.9177 39.8077L54.9206 39.8094L55.424 38.9453ZM51.8018 35.0781L50.912 35.5344L50.9143 35.5389L51.8018 35.0781ZM51.2798 24.3821L50.3427 24.0331L50.3417 24.0357L51.2798 24.3821ZM53.4531 20.8452L54.1733 21.5389H54.1733L53.4531 20.8452ZM56.7024 18.6399L56.3246 17.714V17.714L56.7024 18.6399ZM64.1705 18.4268L63.8485 19.3736L63.8542 19.3755L64.1705 18.4268ZM67.0043 19.9396L66.3829 20.7231L66.3861 20.7257L67.0043 19.9396ZM69.0391 22.2727L68.175 22.7762L68.1768 22.7791L69.0391 22.2727ZM70.0511 25.2344V26.2344H71.1988L71.0417 25.0975L70.0511 25.2344ZM66.3247 24.9579C66.1499 24.3503 65.8985 23.7937 65.5626 23.2986L63.9076 24.4216C64.1114 24.722 64.2791 25.0816 64.4026 25.5108L66.3247 24.9579ZM65.5671 23.3054C65.2305 22.8004 64.8148 22.3705 64.3227 22.0216L63.1659 23.6531C63.4551 23.8582 63.6999 24.1101 63.903 24.4148L65.5671 23.3054ZM64.3395 22.0338C63.8553 21.6751 63.3089 21.4091 62.7106 21.2297L62.1359 23.1453C62.532 23.2642 62.8663 23.4314 63.1491 23.6409L64.3395 22.0338ZM62.7145 21.2308C62.116 21.0487 61.4727 20.9638 60.7933 20.9638V22.9638C61.3071 22.9638 61.7505 23.028 62.1321 23.1442L62.7145 21.2308ZM60.7933 20.9638C59.5044 20.9638 58.3295 21.2867 57.3048 21.9584L58.4012 23.6311C59.0668 23.1948 59.8521 22.9638 60.7933 22.9638V20.9638ZM57.3015 21.9605C56.2808 22.6352 55.5126 23.6022 54.9784 24.8081L56.8071 25.6181C57.2104 24.7074 57.749 24.0622 58.4044 23.629L57.3015 21.9605ZM54.9795 24.8058C54.4384 26.0192 54.1896 27.4522 54.1896 29.0696H56.1896C56.1896 27.6472 56.4097 26.5092 56.8061 25.6204L54.9795 24.8058ZM54.1896 29.0696C54.1896 30.686 54.4345 32.1219 54.9645 33.3451L56.7997 32.5498C56.4064 31.6423 56.1896 30.493 56.1896 29.0696H54.1896ZM54.9645 33.3451C55.4916 34.5614 56.2607 35.5374 57.2892 36.2202L58.3954 34.5539C57.7336 34.1146 57.1959 33.4641 56.7997 32.5498L54.9645 33.3451ZM57.2941 36.2234C58.324 36.8984 59.5184 37.218 60.8359 37.218V35.218C59.8524 35.218 59.051 34.9837 58.3905 34.5507L57.2941 36.2234ZM60.8359 37.218C61.9953 37.218 63.0479 37.0131 63.9572 36.5585L63.0627 34.7696C62.4947 35.0536 61.7647 35.218 60.8359 35.218V37.218ZM63.9606 36.5568C64.8695 36.098 65.588 35.4364 66.0822 34.5738L64.3468 33.5796C64.0597 34.0807 63.6419 34.4773 63.0593 34.7713L63.9606 36.5568ZM66.0783 34.5806C66.58 33.7205 66.8111 32.734 66.8111 31.6584H64.8111C64.8111 32.4436 64.6444 33.0693 64.3507 33.5728L66.0783 34.5806ZM65.6649 32.6476L66.6024 32.7861L66.8947 30.8076L65.9572 30.6691L65.6649 32.6476ZM66.7486 30.7969H61.1236V32.7969H66.7486V30.7969ZM62.1236 31.7969V28.3239H60.1236V31.7969H62.1236ZM61.1236 29.3239H70.2536V27.3239H61.1236V29.3239ZM69.2536 28.3239V31.0724H71.2536V28.3239H69.2536ZM69.2536 31.0724C69.2536 32.8476 68.8798 34.3128 68.1769 35.509L69.9012 36.5223C70.8177 34.9627 71.2536 33.1325 71.2536 31.0724H69.2536ZM68.178 35.507C67.4636 36.7165 66.4864 37.6449 65.2291 38.3049L66.1587 40.0757C67.7423 39.2443 68.9952 38.0562 69.9001 36.5242L68.178 35.507ZM65.2325 38.3031C63.974 38.9576 62.5098 39.2983 60.8146 39.2983V41.2983C62.7843 41.2983 64.5729 40.9004 66.1552 40.0776L65.2325 38.3031ZM60.8146 39.2983C58.9206 39.2983 57.3023 38.8822 55.9274 38.0812L54.9206 39.8094C56.6423 40.8124 58.6178 41.2983 60.8146 41.2983V39.2983ZM55.9303 38.083C54.5523 37.2738 53.4734 36.1276 52.6894 34.6174L50.9143 35.5389C51.8632 37.3667 53.1992 38.7986 54.9177 39.8077L55.9303 38.083ZM52.6917 34.6219C51.919 33.1149 51.5128 31.2894 51.5128 29.1122H49.5128C49.5128 31.5373 49.9659 33.6891 50.912 35.5344L52.6917 34.6219ZM51.5128 29.1122C51.5128 27.4392 51.7547 25.983 52.2179 24.7285L50.3417 24.0357C49.7822 25.5511 49.5128 27.2483 49.5128 29.1122H51.5128ZM52.2169 24.7311C52.6927 23.4538 53.3479 22.3959 54.1733 21.5389L52.7329 20.1514C51.6975 21.2263 50.9039 22.5264 50.3427 24.0331L52.2169 24.7311ZM54.1733 21.5389C55.0075 20.6729 55.9741 20.0171 57.0802 19.5658L56.3246 17.714C54.9591 18.2712 53.7595 19.0856 52.7329 20.1514L54.1733 21.5389ZM57.0802 19.5658C58.1867 19.1143 59.3961 18.8835 60.7188 18.8835V16.8835C59.1579 16.8835 57.6897 17.157 56.3246 17.714L57.0802 19.5658ZM60.7188 18.8835C61.8558 18.8835 62.8965 19.0499 63.8486 19.3736L64.4924 17.4801C63.3137 17.0793 62.0533 16.8835 60.7188 16.8835V18.8835ZM63.8542 19.3755C64.8166 19.6963 65.6564 20.1469 66.3829 20.7231L67.6257 19.1561C66.7044 18.4255 65.655 17.8676 64.4867 17.4782L63.8542 19.3755ZM66.3861 20.7257C67.1193 21.3022 67.7137 21.9844 68.175 22.7762L69.9031 21.7693C69.3133 20.757 68.5511 19.8838 67.6224 19.1535L66.3861 20.7257ZM68.1768 22.7791C68.6323 23.5549 68.9285 24.4155 69.0605 25.3712L71.0417 25.0975C70.8755 23.8942 70.4969 22.7804 69.9013 21.7663L68.1768 22.7791ZM70.0511 24.2344H65.3636V26.2344H70.0511V24.2344ZM73.6333 40H72.6333V41H73.6333V40ZM73.6333 23.6364V22.6364H72.6333V23.6364H73.6333ZM78.0332 23.6364H79.0332V22.6364H78.0332V23.6364ZM78.0332 26.4915H77.0332V27.4915H78.0332V26.4915ZM78.2037 26.4915V27.4915H78.9522L79.1631 26.7733L78.2037 26.4915ZM79.7058 24.1903L80.2993 24.9952L80.3045 24.9913L79.7058 24.1903ZM82.8699 23.4446L82.9773 22.4504L82.9773 22.4504L82.8699 23.4446ZM83.5623 23.5618H84.5623V22.781L83.8049 22.5916L83.5623 23.5618ZM83.5623 27.5888L83.275 28.5466L84.5623 28.9328V27.5888H83.5623ZM79.8549 27.7805L80.3355 28.6575L80.3396 28.6553L79.8549 27.7805ZM78.6191 28.9737L77.7606 28.461L77.7554 28.4699L78.6191 28.9737ZM78.1717 40V41H79.1717V40H78.1717ZM74.6333 40V23.6364H72.6333V40H74.6333ZM73.6333 24.6364H78.0332V22.6364H73.6333V24.6364ZM77.0332 23.6364V26.4915H79.0332V23.6364H77.0332ZM78.0332 27.4915H78.2037V25.4915H78.0332V27.4915ZM79.1631 26.7733C79.4132 25.9217 79.8067 25.3584 80.2993 24.9952L79.1123 23.3855C78.1986 24.0592 77.5907 25.03 77.2442 26.2097L79.1631 26.7733ZM80.3045 24.9913C80.8268 24.6009 81.4243 24.402 82.1348 24.402V22.402C81.0128 22.402 79.991 22.7287 79.1071 23.3894L80.3045 24.9913ZM82.1348 24.402C82.3209 24.402 82.5297 24.4137 82.7624 24.4388L82.9773 22.4504C82.6844 22.4187 82.4032 22.402 82.1348 22.402V24.402ZM82.7624 24.4388C82.9919 24.4636 83.1759 24.496 83.3198 24.5319L83.8049 22.5916C83.551 22.5282 83.2734 22.4824 82.9773 22.4504L82.7624 24.4388ZM82.5623 23.5618V27.5888H84.5623V23.5618H82.5623ZM83.8497 26.631C83.5621 26.5447 83.207 26.4795 82.809 26.4269L82.5472 28.4097C82.902 28.4566 83.1364 28.505 83.275 28.5466L83.8497 26.631ZM82.809 26.4269C82.3981 26.3727 82.0091 26.3438 81.6447 26.3438V28.3438C81.9053 28.3438 82.2053 28.3646 82.5472 28.4097L82.809 26.4269ZM81.6447 26.3438C80.8268 26.3438 80.0601 26.5236 79.3703 26.9058L80.3396 28.6553C80.7009 28.4551 81.1274 28.3438 81.6447 28.3438V26.3438ZM79.3744 26.9036C78.6985 27.2739 78.1566 27.7979 77.7606 28.461L79.4777 29.4865C79.6925 29.1268 79.9744 28.8554 80.3355 28.6575L79.3744 26.9036ZM77.7554 28.4699C77.3569 29.1529 77.1717 29.9206 77.1717 30.7422H79.1717C79.1717 30.2285 79.2848 29.8172 79.4829 29.4776L77.7554 28.4699ZM77.1717 30.7422V40H79.1717V30.7422H77.1717ZM78.1717 39H73.6333V41H78.1717V39ZM88.2578 39.2969L87.7622 40.1655L87.7683 40.1689L88.2578 39.2969ZM85.4666 36.3778L84.5783 36.837L84.5793 36.839L85.4666 36.3778ZM85.4666 27.4609L84.5772 27.0038L85.4666 27.4609ZM88.2259 24.4886L87.7144 23.6293L87.7121 23.6307L88.2259 24.4886ZM95.4382 23.9453L95.0879 24.882L95.0965 24.8851L95.4382 23.9453ZM97.8885 25.4901L97.185 26.2008L97.1886 26.2043L97.8885 25.4901ZM99.5291 28.0895L98.5925 28.4399L98.5933 28.442L99.5291 28.0895ZM100.115 32.9794V33.9794H101.115V32.9794H100.115ZM86.2976 32.9794H85.2976V33.9794H86.2976V32.9794ZM86.2976 30.1669V29.1669H85.2976V30.1669H86.2976ZM95.843 30.1669V31.1669H96.843V30.1669H95.843ZM95.4169 28.4304L94.5457 28.9212H94.5457L95.4169 28.4304ZM94.2344 27.2479L93.729 28.1108L93.7362 28.115L93.7435 28.1191L94.2344 27.2479ZM90.6655 27.2905L91.1766 28.15L91.18 28.148L90.6655 27.2905ZM89.4297 28.5582L90.2994 29.0519L90.3022 29.0468L89.4297 28.5582ZM88.9716 30.3161L87.9716 30.3051V30.3161H88.9716ZM89.419 35.0888L88.5267 35.5403L88.5311 35.5488L89.419 35.0888ZM94.0639 36.7188L93.7429 35.7717L94.0639 36.7188ZM95.1399 36.0795L94.4503 35.3554L95.1399 36.0795ZM95.8217 35.0355L95.8876 34.0377L95.1492 33.989L94.8867 34.6809L95.8217 35.0355ZM100.019 35.3125L100.998 35.5192L101.236 34.3906L100.085 34.3147L100.019 35.3125ZM98.7088 37.9545L97.9571 37.295L97.9567 37.2955L98.7088 37.9545ZM96.1733 39.7017L96.5447 40.6302L96.548 40.6289L96.1733 39.7017ZM92.6044 39.3196C91.057 39.3196 89.7841 39.0069 88.7473 38.4249L87.7683 40.1689C89.1605 40.9505 90.7853 41.3196 92.6044 41.3196V39.3196ZM88.7534 38.4283C87.7164 37.8366 86.9204 37.0066 86.3539 35.9166L84.5793 36.839C85.3196 38.2633 86.3845 39.3793 87.7622 40.1654L88.7534 38.4283ZM86.355 35.9187C85.7889 34.8235 85.4865 33.4924 85.4865 31.8928H83.4865C83.4865 33.7448 83.8375 35.4037 84.5783 36.837L86.355 35.9187ZM85.4865 31.8928C85.4865 30.3404 85.7872 29.0249 86.356 27.9181L84.5772 27.0038C83.8393 28.4396 83.4865 30.0787 83.4865 31.8928H85.4865ZM86.356 27.9181C86.9271 26.8069 87.7193 25.9575 88.7396 25.3466L87.7121 23.6307C86.3602 24.4402 85.3129 25.5724 84.5772 27.0038L86.356 27.9181ZM88.7373 25.3479C89.753 24.7434 90.9697 24.4233 92.4233 24.4233V22.4233C90.6666 22.4233 89.0851 22.8135 87.7144 23.6293L88.7373 25.3479ZM92.4233 24.4233C93.3936 24.4233 94.2789 24.5793 95.0879 24.8819L95.7886 23.0087C94.7368 22.6153 93.6121 22.4233 92.4233 22.4233V24.4233ZM95.0965 24.8851C95.9009 25.1776 96.5936 25.6154 97.185 26.2008L98.592 24.7793C97.7914 23.9869 96.8505 23.3948 95.78 23.0055L95.0965 24.8851ZM97.1886 26.2043C97.7741 26.778 98.2464 27.5148 98.5925 28.4399L100.466 27.7391C100.031 26.5761 99.4091 25.58 98.5883 24.7758L97.1886 26.2043ZM98.5933 28.442C98.9322 29.3415 99.1151 30.4317 99.1151 31.733H101.115C101.115 30.2501 100.907 28.9113 100.465 27.737L98.5933 28.442ZM99.1151 31.733V32.9794H101.115V31.733H99.1151ZM100.115 31.9794H86.2976V33.9794H100.115V31.9794ZM87.2976 32.9794V30.1669H85.2976V32.9794H87.2976ZM86.2976 31.1669H95.843V29.1669H86.2976V31.1669ZM96.843 30.1669C96.843 29.3641 96.6671 28.6121 96.2882 27.9396L94.5457 28.9212C94.7349 29.2572 94.843 29.6629 94.843 30.1669H96.843ZM96.2882 27.9396C95.9144 27.2761 95.3886 26.7504 94.7252 26.3766L93.7435 28.1191C94.0886 28.3135 94.3512 28.5761 94.5457 28.9212L96.2882 27.9396ZM94.7398 26.385C94.068 25.9915 93.3096 25.8111 92.4979 25.8111V27.8111C93.0072 27.8111 93.4064 27.9218 93.729 28.1108L94.7398 26.385ZM92.4979 25.8111C91.648 25.8111 90.8556 26.0102 90.151 26.433L91.18 28.148C91.5407 27.9316 91.9699 27.8111 92.4979 27.8111V25.8111ZM90.1544 26.4309C89.4781 26.8331 88.9414 27.3835 88.5572 28.0696L90.3022 29.0468C90.5145 28.6677 90.8017 28.3729 91.1766 28.15L90.1544 26.4309ZM88.56 28.0646C88.1723 28.7477 87.9805 29.5016 87.9717 30.3051L89.9715 30.327C89.9769 29.8379 90.0905 29.4199 90.2994 29.0518L88.56 28.0646ZM87.9716 30.3161V32.9901H89.9716V30.3161H87.9716ZM87.9716 32.9901C87.9716 33.9218 88.1434 34.7828 88.5268 35.5403L90.3113 34.6373C90.098 34.2158 89.9716 33.6777 89.9716 32.9901H87.9716ZM88.5311 35.5488C88.9209 36.3012 89.4823 36.8997 90.2084 37.3186L91.2078 35.5862C90.8259 35.3659 90.528 35.0554 90.3069 34.6288L88.5311 35.5488ZM90.2084 37.3186C90.9407 37.7411 91.7768 37.9318 92.679 37.9318V35.9318C92.0613 35.9318 91.5835 35.803 91.2078 35.5862L90.2084 37.3186ZM92.679 37.9318C93.2774 37.9318 93.8492 37.8474 94.385 37.6658L93.7429 35.7717C93.4406 35.8742 93.0891 35.9318 92.679 35.9318V37.9318ZM94.385 37.6658C94.9312 37.4806 95.4184 37.1953 95.8296 36.8037L94.4503 35.3554C94.2648 35.532 94.0347 35.6728 93.7429 35.7717L94.385 37.6658ZM95.8296 36.8037C96.2437 36.4093 96.5512 35.9321 96.7567 35.3902L94.8867 34.6809C94.7798 34.9627 94.6327 35.1816 94.4503 35.3554L95.8296 36.8037ZM95.7559 36.0333L99.9533 36.3103L100.085 34.3147L95.8876 34.0377L95.7559 36.0333ZM99.0408 35.1058C98.8621 35.9516 98.5011 36.6751 97.9571 37.295L99.4605 38.6141C100.238 37.7284 100.75 36.6905 100.998 35.5192L99.0408 35.1058ZM97.9567 37.2955C97.4189 37.9093 96.7092 38.4066 95.7986 38.7745L96.548 40.6289C97.7112 40.1588 98.6919 39.4913 99.4609 38.6136L97.9567 37.2955ZM95.8019 38.7732C94.9128 39.1289 93.8534 39.3196 92.6044 39.3196V41.3196C94.0543 41.3196 95.3742 41.0984 96.5447 40.6302L95.8019 38.7732ZM106.188 39.2969L105.692 40.1655L105.698 40.1689L106.188 39.2969ZM103.396 36.3778L102.508 36.837L102.509 36.839L103.396 36.3778ZM103.396 27.4609L102.507 27.0038L103.396 27.4609ZM106.156 24.4886L105.644 23.6293L105.642 23.6307L106.156 24.4886ZM113.368 23.9453L113.018 24.882L113.026 24.8851L113.368 23.9453ZM115.818 25.4901L115.115 26.2008L115.118 26.2043L115.818 25.4901ZM117.459 28.0895L116.522 28.4399L116.523 28.442L117.459 28.0895ZM118.045 32.9794V33.9794H119.045V32.9794H118.045ZM104.227 32.9794H103.227V33.9794H104.227V32.9794ZM104.227 30.1669V29.1669H103.227V30.1669H104.227ZM113.773 30.1669V31.1669H114.773V30.1669H113.773ZM113.347 28.4304L112.475 28.9212H112.475L113.347 28.4304ZM112.164 27.2479L111.659 28.1108L111.666 28.115L111.673 28.1191L112.164 27.2479ZM108.595 27.2905L109.106 28.15L109.11 28.148L108.595 27.2905ZM107.359 28.5582L108.229 29.0519L108.232 29.0468L107.359 28.5582ZM106.901 30.3161L105.901 30.3051V30.3161H106.901ZM107.349 35.0888L106.456 35.5403L106.461 35.5488L107.349 35.0888ZM111.994 36.7188L111.673 35.7717L111.994 36.7188ZM113.07 36.0795L112.38 35.3554L113.07 36.0795ZM113.751 35.0355L113.817 34.0377L113.079 33.989L112.816 34.6809L113.751 35.0355ZM117.949 35.3125L118.927 35.5192L119.166 34.3906L118.015 34.3147L117.949 35.3125ZM116.638 37.9545L115.887 37.295L115.886 37.2955L116.638 37.9545ZM114.103 39.7017L114.474 40.6302L114.478 40.6289L114.103 39.7017ZM110.534 39.3196C108.987 39.3196 107.714 39.0069 106.677 38.4249L105.698 40.1689C107.09 40.9505 108.715 41.3196 110.534 41.3196V39.3196ZM106.683 38.4283C105.646 37.8366 104.85 37.0066 104.284 35.9166L102.509 36.839C103.249 38.2633 104.314 39.3793 105.692 40.1654L106.683 38.4283ZM104.285 35.9187C103.719 34.8235 103.416 33.4924 103.416 31.8928H101.416C101.416 33.7448 101.767 35.4037 102.508 36.837L104.285 35.9187ZM103.416 31.8928C103.416 30.3404 103.717 29.0249 104.286 27.9181L102.507 27.0038C101.769 28.4396 101.416 30.0787 101.416 31.8928H103.416ZM104.286 27.9181C104.857 26.8069 105.649 25.9575 106.669 25.3466L105.642 23.6307C104.29 24.4402 103.243 25.5724 102.507 27.0038L104.286 27.9181ZM106.667 25.3479C107.683 24.7434 108.899 24.4233 110.353 24.4233V22.4233C108.596 22.4233 107.015 22.8135 105.644 23.6293L106.667 25.3479ZM110.353 24.4233C111.323 24.4233 112.209 24.5793 113.018 24.8819L113.718 23.0087C112.666 22.6153 111.542 22.4233 110.353 22.4233V24.4233ZM113.026 24.8851C113.831 25.1776 114.523 25.6154 115.115 26.2008L116.522 24.7793C115.721 23.9869 114.78 23.3948 113.71 23.0055L113.026 24.8851ZM115.118 26.2043C115.704 26.778 116.176 27.5148 116.522 28.4399L118.395 27.7391C117.96 26.5761 117.339 25.58 116.518 24.7758L115.118 26.2043ZM116.523 28.442C116.862 29.3415 117.045 30.4317 117.045 31.733H119.045C119.045 30.2501 118.837 28.9113 118.395 27.737L116.523 28.442ZM117.045 31.733V32.9794H119.045V31.733H117.045ZM118.045 31.9794H104.227V33.9794H118.045V31.9794ZM105.227 32.9794V30.1669H103.227V32.9794H105.227ZM104.227 31.1669H113.773V29.1669H104.227V31.1669ZM114.773 30.1669C114.773 29.3641 114.597 28.6121 114.218 27.9396L112.475 28.9212C112.665 29.2572 112.773 29.6629 112.773 30.1669H114.773ZM114.218 27.9396C113.844 27.2761 113.318 26.7504 112.655 26.3766L111.673 28.1191C112.018 28.3135 112.281 28.5761 112.475 28.9212L114.218 27.9396ZM112.669 26.385C111.998 25.9915 111.239 25.8111 110.428 25.8111V27.8111C110.937 27.8111 111.336 27.9218 111.659 28.1108L112.669 26.385ZM110.428 25.8111C109.578 25.8111 108.785 26.0102 108.081 26.433L109.11 28.148C109.47 27.9316 109.9 27.8111 110.428 27.8111V25.8111ZM108.084 26.4309C107.408 26.8331 106.871 27.3835 106.487 28.0696L108.232 29.0468C108.444 28.6677 108.731 28.3729 109.106 28.15L108.084 26.4309ZM106.49 28.0646C106.102 28.7477 105.91 29.5016 105.901 30.3051L107.901 30.327C107.907 29.8379 108.02 29.4199 108.229 29.0518L106.49 28.0646ZM105.901 30.3161V32.9901H107.901V30.3161H105.901ZM105.901 32.9901C105.901 33.9218 106.073 34.7828 106.456 35.5403L108.241 34.6373C108.028 34.2158 107.901 33.6777 107.901 32.9901H105.901ZM106.461 35.5488C106.851 36.3012 107.412 36.8997 108.138 37.3186L109.138 35.5862C108.756 35.3659 108.458 35.0554 108.237 34.6288L106.461 35.5488ZM108.138 37.3186C108.87 37.7411 109.706 37.9318 110.609 37.9318V35.9318C109.991 35.9318 109.513 35.803 109.138 35.5862L108.138 37.3186ZM110.609 37.9318C111.207 37.9318 111.779 37.8474 112.315 37.6658L111.673 35.7717C111.37 35.8742 111.019 35.9318 110.609 35.9318V37.9318ZM112.315 37.6658C112.861 37.4806 113.348 37.1953 113.759 36.8037L112.38 35.3554C112.195 35.532 111.964 35.6728 111.673 35.7717L112.315 37.6658ZM113.759 36.8037C114.173 36.4093 114.481 35.9321 114.686 35.3902L112.816 34.6809C112.709 34.9627 112.562 35.1816 112.38 35.3554L113.759 36.8037ZM113.686 36.0333L117.883 36.3103L118.015 34.3147L113.817 34.0377L113.686 36.0333ZM116.97 35.1058C116.792 35.9516 116.431 36.6751 115.887 37.295L117.39 38.6141C118.167 37.7284 118.68 36.6905 118.927 35.5192L116.97 35.1058ZM115.886 37.2955C115.349 37.9093 114.639 38.4066 113.728 38.7745L114.478 40.6289C115.641 40.1588 116.622 39.4913 117.391 38.6136L115.886 37.2955ZM113.732 38.7732C112.842 39.1289 111.783 39.3196 110.534 39.3196V41.3196C111.984 41.3196 113.304 41.0984 114.474 40.6302L113.732 38.7732ZM125.545 30.5398L124.545 30.5297V30.5398H125.545ZM125.545 40V41H126.545V40H125.545ZM121.006 40H120.006V41H121.006V40ZM121.006 23.6364V22.6364H120.006V23.6364H121.006ZM125.332 23.6364H126.332V22.6364H125.332V23.6364ZM125.332 26.5234H124.332V27.5234H125.332V26.5234ZM125.523 26.5234V27.5234H126.213L126.458 26.8791L125.523 26.5234ZM127.345 24.2649L127.89 25.1034L127.895 25.1002L127.345 24.2649ZM133.418 24.169L133.925 23.3071L133.418 24.169ZM135.388 26.2997L134.497 26.7524L134.498 26.7552L135.388 26.2997ZM136.092 40V41H137.092V40H136.092ZM131.553 40H130.553V41H131.553V40ZM131.553 30.3906L130.553 30.3835V30.3906H131.553ZM130.786 28.0469L130.048 28.7209L130.052 28.7255L130.786 28.0469ZM127.026 27.5888L126.537 26.7165L126.531 26.7197L127.026 27.5888ZM125.939 28.7393L125.052 28.2772L125.05 28.282L125.939 28.7393ZM124.545 30.5398V40H126.545V30.5398H124.545ZM125.545 39H121.006V41H125.545V39ZM122.006 40V23.6364H120.006V40H122.006ZM121.006 24.6364H125.332V22.6364H121.006V24.6364ZM124.332 23.6364V26.5234H126.332V23.6364H124.332ZM125.332 27.5234H125.523V25.5234H125.332V27.5234ZM126.458 26.8791C126.745 26.1252 127.216 25.5416 127.89 25.1034L126.8 23.4265C125.77 24.0962 125.026 25.0183 124.589 26.1677L126.458 26.8791ZM127.895 25.1002C128.555 24.6656 129.388 24.4233 130.445 24.4233V22.4233C129.073 22.4233 127.84 22.7421 126.795 23.4297L127.895 25.1002ZM130.445 24.4233C131.432 24.4233 132.242 24.6377 132.911 25.031L133.925 23.3071C132.903 22.706 131.731 22.4233 130.445 22.4233V24.4233ZM132.911 25.031C133.582 25.4257 134.109 25.9895 134.497 26.7524L136.28 25.847C135.73 24.7634 134.944 23.9067 133.925 23.3071L132.911 25.031ZM134.498 26.7552C134.88 27.5011 135.092 28.4314 135.092 29.581H137.092C137.092 28.1879 136.835 26.9308 136.279 25.8442L134.498 26.7552ZM135.092 29.581V40H137.092V29.581H135.092ZM136.092 39H131.553V41H136.092V39ZM132.553 40V30.3906H130.553V40H132.553ZM132.553 30.3977C132.562 29.2236 132.26 28.168 131.521 27.3682L130.052 28.7255C130.35 29.0479 130.559 29.5549 130.553 30.3835L132.553 30.3977ZM131.525 27.3728C130.782 26.5591 129.779 26.1946 128.645 26.1946V28.1946C129.329 28.1946 129.753 28.3983 130.048 28.7209L131.525 27.3728ZM128.645 26.1946C127.887 26.1946 127.174 26.3591 126.537 26.7165L127.515 28.4611C127.815 28.2929 128.182 28.1946 128.645 28.1946V26.1946ZM126.531 26.7197C125.89 27.0844 125.397 27.615 125.052 28.2772L126.826 29.2015C127.006 28.8552 127.238 28.6187 127.52 28.4578L126.531 26.7197ZM125.05 28.282C124.707 28.9486 124.553 29.71 124.545 30.5297L126.545 30.5499C126.551 29.9633 126.66 29.5244 126.828 29.1967L125.05 28.282ZM139.754 40H138.754V41H139.754V40ZM139.754 18.1818V17.1818H138.754V18.1818H139.754ZM152.591 19.13L152.114 20.0089L152.118 20.0111L152.591 19.13ZM155.254 21.7401L154.377 22.2205L154.381 22.2271L155.254 21.7401ZM152.527 31.9993L152.065 31.1124L152.063 31.1136L152.527 31.9993ZM142.758 32.9261H141.758V33.9261H142.758V32.9261ZM142.758 29.2294V28.2294H141.758V29.2294H142.758ZM149.693 28.7713L150.162 29.6546L150.166 29.6525L149.693 28.7713ZM150.993 27.4822L150.108 27.017L150.106 27.0213L150.993 27.4822ZM150.993 23.679L150.106 24.14L150.109 24.1469L150.113 24.1538L150.993 23.679ZM149.693 22.4112L149.229 23.2969L149.237 23.3013L149.693 22.4112ZM144.367 21.9531V20.9531H143.367V21.9531H144.367ZM144.367 40V41H145.367V40H144.367ZM140.754 40V18.1818H138.754V40H140.754ZM139.754 19.1818H148.362V17.1818H139.754V19.1818ZM148.362 19.1818C149.891 19.1818 151.128 19.4736 152.114 20.0089L153.068 18.2511C151.725 17.5221 150.142 17.1818 148.362 17.1818V19.1818ZM152.118 20.0111C153.119 20.5484 153.864 21.2823 154.377 22.2205L156.131 21.2596C155.424 19.9677 154.392 18.9616 153.064 18.2488L152.118 20.0111ZM154.381 22.2271C154.905 23.1661 155.181 24.2724 155.181 25.5753H157.181C157.181 23.9805 156.84 22.5299 156.128 21.253L154.381 22.2271ZM155.181 25.5753C155.181 26.8763 154.902 27.981 154.373 28.9192L156.115 29.9018C156.836 28.6241 157.181 27.172 157.181 25.5753H155.181ZM154.373 28.9192C153.848 29.8496 153.089 30.5792 152.065 31.1124L152.989 32.8862C154.338 32.1836 155.39 31.1873 156.115 29.9018L154.373 28.9192ZM152.063 31.1136C151.06 31.6394 149.8 31.9261 148.244 31.9261V33.9261C150.041 33.9261 151.637 33.5949 152.991 32.885L152.063 31.1136ZM148.244 31.9261H142.758V33.9261H148.244V31.9261ZM143.758 32.9261V29.2294H141.758V32.9261H143.758ZM142.758 30.2294H147.499V28.2294H142.758V30.2294ZM147.499 30.2294C148.493 30.2294 149.4 30.0594 150.162 29.6546L149.224 27.8881C148.836 28.0941 148.28 28.2294 147.499 28.2294V30.2294ZM150.166 29.6525C150.912 29.2521 151.497 28.6818 151.88 27.9432L150.106 27.0213C149.921 27.3764 149.639 27.6655 149.221 27.8901L150.166 29.6525ZM151.878 27.9475C152.255 27.2303 152.43 26.4309 152.43 25.5753H150.43C150.43 26.1544 150.313 26.6262 150.108 27.017L151.878 27.9475ZM152.43 25.5753C152.43 24.7151 152.256 23.9142 151.873 23.2042L150.113 24.1538C150.312 24.5233 150.43 24.9866 150.43 25.5753H152.43ZM151.88 23.218C151.495 22.475 150.904 21.908 150.149 21.5212L149.237 23.3013C149.647 23.511 149.923 23.7892 150.106 24.14L151.88 23.218ZM150.158 21.5256C149.39 21.1229 148.479 20.9531 147.477 20.9531V22.9531C148.266 22.9531 148.832 23.0887 149.229 23.2968L150.158 21.5256ZM147.477 20.9531H144.367V22.9531H147.477V20.9531ZM143.367 21.9531V40H145.367V21.9531H143.367ZM144.367 39H139.754V41H144.367V39ZM161.929 39.2649L161.42 40.1256L161.426 40.1291L161.929 39.2649ZM159.148 36.3033L158.259 36.7604L158.26 36.7624L159.148 36.3033ZM159.148 27.4503L160.037 27.9094L160.038 27.9074L159.148 27.4503ZM161.929 24.4886L162.434 25.3515L162.436 25.3506L161.929 24.4886ZM170.505 24.4886L169.996 25.3493L170.002 25.3528L170.505 24.4886ZM173.296 27.4503L172.407 27.9074L172.408 27.9094L173.296 27.4503ZM173.296 36.3033L174.184 36.7624L174.185 36.7604L173.296 36.3033ZM170.505 39.2649L171.01 40.1278L171.012 40.1268L170.505 39.2649ZM168.129 36.1648L168.775 36.9286L168.781 36.9233L168.129 36.1648ZM169.269 34.3963L168.326 34.0639L168.323 34.072L169.269 34.3963ZM169.269 29.304L168.323 29.6283L168.326 29.6363L169.269 29.304ZM164.326 27.5355L163.685 26.7681L163.679 26.7725L164.326 27.5355ZM163.165 29.304L162.221 28.9716L162.219 28.9797L163.165 29.304ZM163.165 34.3963L162.219 34.7206L162.221 34.7287L163.165 34.3963ZM164.326 36.1648L163.679 36.9278L163.685 36.9326L163.691 36.9373L164.326 36.1648ZM166.222 39.3196C164.711 39.3196 163.461 38.9998 162.432 38.4008L161.426 40.1291C162.812 40.9363 164.423 41.3196 166.222 41.3196V39.3196ZM162.438 38.4043C161.403 37.7917 160.606 36.9452 160.037 35.8441L158.26 36.7624C158.998 38.1898 160.054 39.3177 161.42 40.1255L162.438 38.4043ZM160.038 35.8461C159.469 34.7388 159.168 33.4267 159.168 31.8821H157.168C157.168 33.6898 157.521 35.3252 158.259 36.7604L160.038 35.8461ZM159.168 31.8821C159.168 30.3217 159.469 29.0074 160.037 27.9094L158.26 26.9911C157.521 28.4216 157.168 30.0619 157.168 31.8821H159.168ZM160.038 27.9074C160.607 26.8002 161.403 25.9558 162.434 25.3515L161.423 23.6258C160.054 24.4277 158.997 25.5578 158.259 26.9932L160.038 27.9074ZM162.436 25.3506C163.464 24.7459 164.713 24.4233 166.222 24.4233V22.4233C164.422 22.4233 162.809 22.8109 161.422 23.6267L162.436 25.3506ZM166.222 24.4233C167.731 24.4233 168.976 24.746 169.996 25.3493L171.014 23.628C169.633 22.8108 168.022 22.4233 166.222 22.4233V24.4233ZM170.002 25.3528C171.04 25.9575 171.838 26.8017 172.407 27.9074L174.185 26.9932C173.447 25.5562 172.384 24.426 171.008 23.6245L170.002 25.3528ZM172.408 27.9094C172.975 29.0074 173.276 30.3217 173.276 31.8821H175.276C175.276 30.0619 174.924 28.4216 174.184 26.9911L172.408 27.9094ZM173.276 31.8821C173.276 33.4267 172.976 34.7388 172.407 35.8461L174.185 36.7604C174.923 35.3252 175.276 33.6898 175.276 31.8821H173.276ZM172.408 35.8441C171.839 36.9436 171.04 37.79 169.998 38.403L171.012 40.1268C172.384 39.3194 173.446 38.1913 174.184 36.7624L172.408 35.8441ZM169.999 38.4021C168.979 38.9997 167.733 39.3196 166.222 39.3196V41.3196C168.021 41.3196 169.63 40.9364 171.01 40.1278L169.999 38.4021ZM166.243 37.804C167.197 37.804 168.065 37.5285 168.775 36.9286L167.484 35.401C167.185 35.6533 166.795 35.804 166.243 35.804V37.804ZM168.781 36.9233C169.443 36.3542 169.912 35.6032 170.215 34.7206L168.323 34.072C168.114 34.6809 167.824 35.1089 167.477 35.4063L168.781 36.9233ZM170.212 34.7287C170.519 33.8569 170.663 32.8927 170.663 31.8501H168.663C168.663 32.711 168.544 33.4442 168.326 34.064L170.212 34.7287ZM170.663 31.8501C170.663 30.8076 170.519 29.8434 170.212 28.9716L168.326 29.6363C168.544 30.2561 168.663 30.9893 168.663 31.8501H170.663ZM170.215 28.9797C169.912 28.0971 169.443 27.3461 168.781 26.777L167.477 28.294C167.824 28.5914 168.114 29.0194 168.323 29.6283L170.215 28.9797ZM168.781 26.777C168.071 26.1673 167.202 25.8857 166.243 25.8857V27.8857C166.791 27.8857 167.179 28.0373 167.477 28.294L168.781 26.777ZM166.243 25.8857C165.28 25.8857 164.405 26.1658 163.685 26.7682L164.967 28.3029C165.283 28.0387 165.687 27.8857 166.243 27.8857V25.8857ZM163.679 26.7725C163.01 27.3396 162.533 28.0889 162.221 28.9716L164.108 29.6363C164.322 29.0276 164.619 28.5979 164.972 28.2985L163.679 26.7725ZM162.219 28.9797C161.921 29.8488 161.781 30.8102 161.781 31.8501H163.781C163.781 30.9866 163.897 30.2506 164.111 29.6283L162.219 28.9797ZM161.781 31.8501C161.781 32.8901 161.921 33.8514 162.219 34.7206L164.111 34.072C163.897 33.4497 163.781 32.7136 163.781 31.8501H161.781ZM162.221 34.7287C162.533 35.6114 163.01 36.3607 163.679 36.9278L164.972 35.4018C164.619 35.1024 164.322 34.6727 164.108 34.064L162.221 34.7287ZM163.691 36.9373C164.412 37.5299 165.284 37.804 166.243 37.804V35.804C165.683 35.804 165.277 35.6519 164.961 35.3922L163.691 36.9373ZM177.227 40H176.227V41H177.227V40ZM177.227 23.6364V22.6364H176.227V23.6364H177.227ZM181.765 23.6364H182.765V22.6364H181.765V23.6364ZM181.765 40V41H182.765V40H181.765ZM177.77 20.8558L177.08 21.5789L177.085 21.5842L177.091 21.5894L177.77 20.8558ZM177.77 17.6172L178.455 18.3457L178.456 18.3454L177.77 17.6172ZM181.233 17.6172L180.542 18.3403L180.548 18.3456L180.553 18.3507L181.233 17.6172ZM181.233 20.8558L181.918 21.5843L181.918 21.584L181.233 20.8558ZM178.227 40V23.6364H176.227V40H178.227ZM177.227 24.6364H181.765V22.6364H177.227V24.6364ZM180.765 23.6364V40H182.765V23.6364H180.765ZM181.765 39H177.227V41H181.765V39ZM179.507 20.527C179.077 20.527 178.743 20.3938 178.45 20.1223L177.091 21.5894C177.764 22.2128 178.587 22.527 179.507 22.527V20.527ZM178.461 20.1327C178.174 19.8581 178.057 19.5724 178.057 19.2259H176.057C176.057 20.1435 176.415 20.9444 177.08 21.5789L178.461 20.1327ZM178.057 19.2259C178.057 18.8904 178.17 18.6137 178.455 18.3457L177.085 16.8887C176.419 17.5155 176.057 18.3113 176.057 19.2259H178.057ZM178.456 18.3454C178.75 18.0688 179.082 17.9354 179.507 17.9354V15.9354C178.582 15.9354 177.757 16.2565 177.085 16.889L178.456 18.3454ZM179.507 17.9354C179.932 17.9354 180.257 18.0684 180.542 18.3403L181.924 16.8941C181.256 16.2569 180.432 15.9354 179.507 15.9354V17.9354ZM180.553 18.3507C180.844 18.6203 180.957 18.8956 180.957 19.2259H182.957C182.957 18.3061 182.587 17.5089 181.912 16.8836L180.553 18.3507ZM180.957 19.2259C180.957 19.5673 180.841 19.8516 180.547 20.1276L181.918 21.584C182.591 20.951 182.957 20.1486 182.957 19.2259H180.957ZM180.548 20.1273C180.264 20.3941 179.936 20.527 179.507 20.527V22.527C180.427 22.527 181.25 22.2124 181.918 21.5843L180.548 20.1273ZM189.939 30.5398L188.939 30.5297V30.5398H189.939ZM189.939 40V41H190.939V40H189.939ZM185.401 40H184.401V41H185.401V40ZM185.401 23.6364V22.6364H184.401V23.6364H185.401ZM189.726 23.6364H190.726V22.6364H189.726V23.6364ZM189.726 26.5234H188.726V27.5234H189.726V26.5234ZM189.918 26.5234V27.5234H190.607L190.853 26.8791L189.918 26.5234ZM191.74 24.2649L192.285 25.1034L192.29 25.1002L191.74 24.2649ZM197.812 24.169L198.319 23.3071L197.812 24.169ZM199.783 26.2997L198.891 26.7524L198.893 26.7552L199.783 26.2997ZM200.486 40V41H201.486V40H200.486ZM195.948 40H194.948V41H195.948V40ZM195.948 30.3906L194.948 30.3835V30.3906H195.948ZM195.181 28.0469L194.442 28.7209L194.446 28.7255L195.181 28.0469ZM191.42 27.5888L190.931 26.7165L190.925 26.7197L191.42 27.5888ZM190.333 28.7393L189.447 28.2772L189.444 28.282L190.333 28.7393ZM188.939 30.5398V40H190.939V30.5398H188.939ZM189.939 39H185.401V41H189.939V39ZM186.401 40V23.6364H184.401V40H186.401ZM185.401 24.6364H189.726V22.6364H185.401V24.6364ZM188.726 23.6364V26.5234H190.726V23.6364H188.726ZM189.726 27.5234H189.918V25.5234H189.726V27.5234ZM190.853 26.8791C191.14 26.1252 191.611 25.5416 192.285 25.1034L191.195 23.4265C190.164 24.0962 189.421 25.0183 188.983 26.1677L190.853 26.8791ZM192.29 25.1002C192.95 24.6656 193.783 24.4233 194.84 24.4233V22.4233C193.468 22.4233 192.234 22.7421 191.19 23.4297L192.29 25.1002ZM194.84 24.4233C195.827 24.4233 196.637 24.6377 197.305 25.031L198.319 23.3071C197.297 22.706 196.126 22.4233 194.84 22.4233V24.4233ZM197.305 25.031C197.976 25.4257 198.504 25.9895 198.891 26.7524L200.675 25.847C200.125 24.7634 199.338 23.9067 198.319 23.3071L197.305 25.031ZM198.893 26.7552C199.274 27.5011 199.486 28.4314 199.486 29.581H201.486C201.486 28.1879 201.229 26.9308 200.673 25.8442L198.893 26.7552ZM199.486 29.581V40H201.486V29.581H199.486ZM200.486 39H195.948V41H200.486V39ZM196.948 40V30.3906H194.948V40H196.948ZM196.948 30.3977C196.956 29.2236 196.654 28.168 195.915 27.3682L194.446 28.7255C194.744 29.0479 194.954 29.5549 194.948 30.3835L196.948 30.3977ZM195.919 27.3728C195.177 26.5591 194.174 26.1946 193.039 26.1946V28.1946C193.723 28.1946 194.148 28.3983 194.442 28.7209L195.919 27.3728ZM193.039 26.1946C192.281 26.1946 191.569 26.3591 190.931 26.7165L191.909 28.4611C192.209 28.2929 192.576 28.1946 193.039 28.1946V26.1946ZM190.925 26.7197C190.285 27.0844 189.792 27.615 189.447 28.2772L191.22 29.2015C191.401 28.8552 191.632 28.6187 191.915 28.4578L190.925 26.7197ZM189.444 28.282C189.101 28.9486 188.948 29.71 188.939 30.5297L190.939 30.5499C190.945 29.9633 191.054 29.5244 191.223 29.1967L189.444 28.282ZM212.767 23.6364H213.767V22.6364H212.767V23.6364ZM212.767 27.0455V28.0455H213.767V27.0455H212.767ZM202.912 27.0455H201.912V28.0455H202.912V27.0455ZM202.912 23.6364V22.6364H201.912V23.6364H202.912ZM205.15 19.7159V18.7159H204.15V19.7159H205.15ZM209.688 19.7159H210.688V18.7159H209.688V19.7159ZM209.88 35.9517L209.002 36.4306L209.008 36.442L209.88 35.9517ZM210.412 36.4311L210.036 37.3576L210.046 37.3615L210.412 36.4311ZM211.861 36.5163L212.026 37.5027L212.042 37.5001L212.057 37.4969L211.861 36.5163ZM212.351 36.4205L213.33 36.2137L213.128 35.2575L212.167 35.4376L212.351 36.4205ZM213.065 39.7976L213.363 40.7521L214.232 40.4807L214.044 39.5908L213.065 39.7976ZM212.106 40.0426L211.888 39.0668L211.88 39.0686L211.872 39.0705L212.106 40.0426ZM210.604 40.2237L210.568 39.2244L210.565 39.2245L210.604 40.2237ZM207.728 39.7869L207.349 40.7126L207.352 40.7137L207.728 39.7869ZM205.821 38.2315L206.661 37.6886L205.821 38.2315ZM205.15 35.5682L206.15 35.5748V35.5682H205.15ZM211.767 23.6364V27.0455H213.767V23.6364H211.767ZM212.767 26.0455H202.912V28.0455H212.767V26.0455ZM203.912 27.0455V23.6364H201.912V27.0455H203.912ZM202.912 24.6364H212.767V22.6364H202.912V24.6364ZM205.15 20.7159H209.688V18.7159H205.15V20.7159ZM208.688 19.7159V34.9716H210.688V19.7159H208.688ZM208.688 34.9716C208.688 35.4717 208.761 35.9887 209.002 36.4306L210.758 35.4729C210.743 35.446 210.688 35.3096 210.688 34.9716H208.688ZM209.008 36.442C209.24 36.8531 209.585 37.1745 210.036 37.3576L210.789 35.5046C210.783 35.5024 210.781 35.5009 210.78 35.5004C210.779 35.4999 210.779 35.4995 210.778 35.4987C210.777 35.4979 210.767 35.4889 210.751 35.4614L209.008 36.442ZM210.046 37.3615C210.419 37.5085 210.817 37.5696 211.222 37.5696V35.5696C211.016 35.5696 210.875 35.5384 210.779 35.5007L210.046 37.3615ZM211.222 37.5696C211.491 37.5696 211.759 37.5472 212.026 37.5027L211.697 35.5299C211.537 35.5565 211.379 35.5696 211.222 35.5696V37.5696ZM212.057 37.4969C212.269 37.4545 212.428 37.4235 212.536 37.4033L212.167 35.4376C212.047 35.46 211.879 35.4929 211.665 35.5358L212.057 37.4969ZM211.373 36.6272L212.087 40.0044L214.044 39.5908L213.33 36.2137L211.373 36.6272ZM212.767 38.8431C212.578 38.902 212.29 38.9767 211.888 39.0668L212.325 41.0184C212.747 40.9239 213.097 40.8352 213.363 40.7521L212.767 38.8431ZM211.872 39.0705C211.545 39.1495 211.115 39.2046 210.568 39.2244L210.64 41.2231C211.273 41.2002 211.844 41.1346 212.341 41.0147L211.872 39.0705ZM210.565 39.2245C209.581 39.2628 208.769 39.1298 208.103 38.8601L207.352 40.7137C208.334 41.1116 209.44 41.2699 210.643 41.223L210.565 39.2245ZM208.106 38.8613C207.468 38.6004 206.998 38.2104 206.661 37.6886L204.981 38.7744C205.553 39.6589 206.354 40.3058 207.349 40.7126L208.106 38.8613ZM206.661 37.6886C206.338 37.1895 206.143 36.5067 206.15 35.5748L204.15 35.5616C204.142 36.7746 204.395 37.8673 204.981 38.7744L206.661 37.6886ZM206.15 35.5682V19.7159H204.15V35.5682H206.15Z" fill="black" fill-opacity="0.5" mask="url(#path-1-outside-1_4202_186)"/>
<path d="M22.7559 0C26.4716 3.55765 33.6247 10.6093 33.8851 10.3545C38.9959 5.45932 40.064 3.70324 43.0566 0.509536C40.4083 9.27174 36.592 33.229 33.9444 41.9912L22.7559 0Z" fill="#006C34"/>
<path d="M65.7521 50.8972C66.92 54.8916 51.0329 58.4766 32.8757 58.4766C14.7192 58.4766 -0.041856 55.0918 8.91729e-05 50.8972C0.0333561 47.6672 17.3835 39.9695 25.0334 43.5272C34.6244 48.0038 29.3878 58.3583 37.9952 43.5454C41.2655 37.9223 65.2726 49.2412 65.7521 50.8972Z" fill="#006C34"/>
</svg>
