<svg width="134" height="168" viewBox="0 0 134 168" fill="none" xmlns="http://www.w3.org/2000/svg">
<path d="M65.9999 2.16671L66.0102 2.16664C77.9793 2.08449 89.7398 5.30038 100.002 11.4616C110.263 17.6227 118.63 26.4911 124.184 37.094C129.738 47.6968 132.264 59.6245 131.486 71.5685C130.711 83.4696 126.684 94.9288 119.847 104.698L119.106 105.439L119.065 105.48L119.028 105.524L114.028 111.357L114.018 111.369L114.008 111.38L71.5081 163.047L71.4867 163.073L71.4666 163.1C70.8301 163.949 70.0047 164.637 69.0558 165.112C68.107 165.586 67.0607 165.833 65.9999 165.833C64.9391 165.833 63.8928 165.586 62.9439 165.112C61.9951 164.637 61.1697 163.949 60.5332 163.1L60.5123 163.072L60.4901 163.045L17.1789 110.572L14.6999 107.267L14.6359 107.181L14.5606 107.106L13.3332 105.879V104.833V104.371L13.0727 103.988C6.51771 94.3724 2.65745 83.1765 1.89297 71.564C1.1285 59.9514 3.4877 48.346 8.72545 37.9537C13.9632 27.5613 21.8884 18.7612 31.6775 12.4677C41.4585 6.17938 52.7438 2.62281 64.3625 2.16667L65.9999 2.16671ZM84.7382 86.0717C89.7079 81.102 92.4999 74.3616 92.4999 67.3333C92.4999 60.3051 89.7079 53.5647 84.7382 48.595C79.7685 43.6253 73.0281 40.8333 65.9999 40.8333C58.9717 40.8333 52.2313 43.6253 47.2616 48.595C42.2918 53.5647 39.4999 60.3051 39.4999 67.3333C39.4999 74.3616 42.2918 81.102 47.2616 86.0717C52.2313 91.0414 58.9717 93.8333 65.9999 93.8333C73.0281 93.8333 79.7685 91.0414 84.7382 86.0717Z" fill="#DCF63D" stroke="#72A507" stroke-width="3"/>
</svg>
