<svg width="24" height="24" viewBox="0 0 24 24" fill="none" xmlns="http://www.w3.org/2000/svg">
<circle cx="12" cy="12" r="12" fill="#656565"/>
<path d="M14.3125 7.5C14.3125 6.91984 14.082 6.36344 13.6718 5.9532C13.2616 5.54297 12.7052 5.3125 12.125 5.3125C11.5448 5.3125 10.9884 5.54297 10.5782 5.9532C10.168 6.36344 9.9375 6.91984 9.9375 7.5C9.9375 8.08016 10.168 8.63656 10.5782 9.0468C10.9884 9.45703 11.5448 9.6875 12.125 9.6875C12.7052 9.6875 13.2616 9.45703 13.6718 9.0468C14.082 8.63656 14.3125 8.08016 14.3125 7.5ZM8.625 7.5C8.625 6.57174 8.99375 5.6815 9.65013 5.02513C10.3065 4.36875 11.1967 4 12.125 4C13.0533 4 13.9435 4.36875 14.5999 5.02513C15.2563 5.6815 15.625 6.57174 15.625 7.5C15.625 8.42826 15.2563 9.3185 14.5999 9.97487C13.9435 10.6313 13.0533 11 12.125 11C11.1967 11 10.3065 10.6313 9.65013 9.97487C8.99375 9.3185 8.625 8.42826 8.625 7.5ZM7.34805 16.6875H16.902C16.6586 14.9566 15.1711 13.625 13.3746 13.625H10.8754C9.07891 13.625 7.59141 14.9566 7.34805 16.6875ZM6 17.1879C6 14.4945 8.18203 12.3125 10.8754 12.3125H13.3746C16.068 12.3125 18.25 14.4945 18.25 17.1879C18.25 17.6363 17.8863 18 17.4379 18H6.81211C6.36367 18 6 17.6363 6 17.1879Z" fill="black"/>
</svg>
